<svg xmlns="http://www.w3.org/2000/svg" viewBox="0 0 512 512">
  <!-- 배경 -->
  <rect width="512" height="512" rx="100" fill="#4ade80"/>

  <!-- 잠자리 몸통 -->
  <ellipse cx="256" cy="256" rx="30" ry="80" fill="#1e40af"/>

  <!-- 잠자리 머리 -->
  <circle cx="256" cy="170" r="35" fill="#3b82f6"/>
  <circle cx="246" cy="165" r="8" fill="white"/>
  <circle cx="266" cy="165" r="8" fill="white"/>
  <circle cx="246" cy="165" r="4" fill="#1e293b"/>
  <circle cx="266" cy="165" r="4" fill="#1e293b"/>

  <!-- 윗날개 -->
  <path d="M256 200 Q 200 120 100 100 Q 150 180 256 220" fill="#60a5fa" opacity="0.8"/>
  <path d="M256 200 Q 312 120 412 100 Q 362 180 256 220" fill="#60a5fa" opacity="0.8"/>

  <!-- 아랫날개 -->
  <path d="M256 280 Q 180 340 80 320 Q 150 300 256 280" fill="#93c5fd" opacity="0.7"/>
  <path d="M256 280 Q 332 340 432 320 Q 362 300 256 280" fill="#93c5fd" opacity="0.7"/>

  <!-- 잠자리 꼬리 -->
  <path d="M256 336 L 256 400 L 246 420 M 256 400 L 266 420" stroke="#1e40af" stroke-width="4" fill="none" stroke-linecap="round"/>

  <!-- 장식 점 -->
  <circle cx="150" cy="120" r="10" fill="#fbbf24" opacity="0.6"/>
  <circle cx="360" cy="110" r="12" fill="#fbbf24" opacity="0.6"/>
  <circle cx="90" cy="300" r="8" fill="#f472b6" opacity="0.5"/>
  <circle cx="420" cy="290" r="10" fill="#f472b6" opacity="0.5"/>
</svg>
